<svg xmlns="http://www.w3.org/2000/svg" viewBox="0 0 300 290" width="300" height="290" role="img" aria-label="Map of France, Nancy">
  <path d="M246.3,108.5 L245.9,108.7 L245.0,108.8 L244.2,108.5 L243.4,108.8 L243.7,109.9 L243.1,110.1 L242.6,110.5 L242.5,111.3 L242.1,111.3 L242.0,111.8 L241.5,112.2 L241.4,112.6 L242.1,112.7 L243.6,112.5 L244.0,112.2 L244.7,112.6 L244.9,113.0 L244.6,113.5 L244.0,113.9 L243.6,114.4 L242.6,114.6 L242.8,115.9 L242.6,116.2 L241.4,117.1 L240.9,118.2 L239.8,119.2 L239.1,119.4 L238.6,119.8 L238.6,120.3 L238.2,120.3 L237.7,121.0 L238.1,121.5 L237.8,121.8 L237.1,122.1 L236.5,122.9 L235.7,123.1 L235.2,123.4 L234.3,123.7 L233.8,123.6 L232.9,124.8 L232.6,124.9 L233.2,126.0 L233.1,127.1 L232.8,127.7 L232.6,128.5 L233.1,128.9 L232.4,129.9 L231.8,130.1 L231.8,130.3 L230.9,131.1 L229.7,131.7 L228.6,132.9 L227.5,133.9 L226.6,134.6 L226.3,135.0 L226.8,135.5 L227.2,135.9 L226.3,136.9 L226.0,137.7 L225.5,138.2 L225.8,138.8 L225.3,139.6 L226.0,139.8 L227.4,140.9 L226.5,142.5 L226.4,143.0 L226.1,143.3 L226.5,144.3 L226.1,144.7 L225.8,144.4 L224.7,144.7 L224.1,145.1 L223.7,145.3 L223.4,145.8 L223.9,146.1 L223.2,147.7 L223.8,147.4 L225.0,147.5 L225.1,147.1 L225.9,147.1 L226.6,147.4 L227.5,146.9 L227.7,146.4 L228.7,145.6 L229.5,145.3 L230.2,144.5 L230.1,144.2 L229.3,144.4 L228.8,143.5 L228.9,142.8 L229.5,141.5 L230.0,141.0 L230.9,140.9 L231.1,141.4 L231.7,141.7 L232.2,141.2 L233.3,140.8 L233.6,140.3 L234.2,139.9 L234.8,140.2 L235.6,140.0 L236.6,139.9 L238.3,139.8 L239.6,140.2 L239.9,140.6 L239.2,141.3 L239.5,141.9 L240.2,142.5 L240.4,142.9 L241.1,143.4 L240.9,144.2 L240.6,144.4 L239.9,145.6 L240.0,146.2 L239.6,146.8 L239.7,147.5 L240.1,147.7 L241.7,148.0 L241.4,148.7 L241.6,149.0 L241.2,150.0 L241.5,150.2 L242.2,149.6 L242.8,150.0 L243.4,151.3 L243.8,151.4 L244.2,152.0 L244.1,152.6 L244.5,152.7 L244.6,153.6 L244.1,153.9 L243.8,154.4 L243.8,154.8 L243.6,155.2 L242.8,155.5 L242.5,155.8 L241.7,156.0 L241.2,155.9 L240.2,156.1 L239.9,156.7 L240.0,156.9 L239.8,157.8 L240.0,159.3 L240.7,160.3 L241.9,160.8 L241.8,161.1 L242.4,161.5 L243.1,161.3 L243.7,161.7 L243.5,162.2 L243.3,163.2 L243.6,163.6 L243.6,164.9 L243.8,165.3 L243.7,165.6 L244.6,165.8 L244.6,166.4 L245.7,166.6 L246.0,167.6 L246.7,167.9 L247.3,168.4 L247.0,169.1 L246.9,169.7 L246.4,170.0 L246.4,170.6 L246.0,170.6 L246.1,171.6 L246.4,172.0 L246.4,172.7 L245.8,173.2 L245.0,174.0 L244.7,173.6 L244.1,173.9 L243.1,174.1 L242.8,174.9 L242.4,175.2 L241.7,175.2 L241.4,175.6 L241.7,176.1 L240.7,176.4 L240.0,175.8 L239.2,175.5 L238.6,176.1 L238.1,175.9 L237.4,176.0 L237.3,176.5 L236.5,176.9 L236.4,177.1 L237.1,178.0 L237.0,178.5 L237.3,179.4 L238.3,179.4 L238.7,179.6 L238.8,180.1 L238.6,180.3 L239.1,180.9 L238.9,181.7 L238.8,182.7 L239.2,182.8 L239.9,183.6 L241.0,184.3 L242.0,184.5 L242.4,184.0 L243.2,184.4 L243.9,184.6 L244.1,185.4 L243.7,186.1 L244.2,186.8 L244.2,187.4 L244.6,188.1 L245.0,188.2 L245.2,189.2 L244.9,189.2 L244.2,188.9 L243.5,189.0 L242.9,189.5 L242.7,189.9 L243.0,190.7 L242.7,191.0 L242.4,191.7 L242.4,192.3 L242.0,192.7 L241.3,192.9 L240.9,193.5 L241.1,194.5 L241.4,195.0 L241.9,195.3 L242.0,195.7 L242.5,196.1 L242.5,196.3 L241.6,196.6 L241.7,197.9 L241.5,198.3 L242.2,198.6 L242.3,199.1 L242.9,199.7 L242.9,200.1 L243.6,200.6 L243.7,201.4 L243.9,201.9 L244.5,202.2 L245.1,202.0 L245.9,202.4 L246.5,202.9 L246.9,202.7 L247.7,203.3 L248.0,203.8 L248.4,203.6 L248.6,204.1 L249.2,204.6 L250.4,204.5 L250.8,205.2 L251.4,205.1 L252.1,205.3 L252.2,205.0 L252.8,205.0 L253.7,204.5 L254.7,204.4 L255.1,204.3 L255.8,204.3 L256.4,203.5 L257.2,203.7 L256.9,204.2 L256.8,204.8 L257.0,205.3 L257.8,206.3 L257.8,206.8 L257.5,207.5 L256.8,207.7 L256.9,208.7 L256.5,209.3 L255.7,209.9 L255.4,209.9 L255.0,210.4 L254.7,211.1 L254.7,211.6 L253.8,212.0 L253.5,212.6 L253.9,214.2 L254.1,214.7 L253.4,215.3 L253.1,215.8 L252.8,215.5 L251.8,216.2 L251.8,216.5 L251.1,216.7 L250.8,216.6 L250.4,216.9 L250.1,217.3 L249.6,217.6 L249.3,217.4 L248.5,217.5 L248.2,218.3 L247.8,218.8 L247.5,218.4 L246.8,218.5 L246.5,219.0 L246.1,220.4 L246.1,221.2 L245.7,220.9 L245.1,221.2 L244.8,221.5 L244.0,221.5 L243.2,221.6 L242.8,221.9 L242.5,222.5 L242.8,222.8 L242.7,223.4 L242.4,223.5 L242.2,224.3 L241.9,224.5 L241.6,225.0 L240.9,224.9 L241.0,225.4 L240.3,225.3 L239.5,225.5 L239.1,225.1 L238.5,225.6 L238.5,226.1 L238.1,226.7 L238.0,227.4 L237.4,227.5 L237.2,228.1 L235.6,229.3 L235.6,229.7 L236.3,229.7 L236.7,229.4 L237.1,229.6 L237.4,229.2 L237.8,229.6 L237.6,229.9 L237.1,230.4 L237.2,231.3 L236.7,231.9 L236.3,232.6 L235.7,231.9 L235.0,231.8 L233.8,232.9 L233.1,232.8 L232.0,233.0 L231.3,233.3 L231.2,233.8 L231.3,234.7 L230.6,234.6 L230.3,234.2 L229.5,233.8 L228.8,234.0 L228.2,233.9 L227.6,234.2 L227.2,234.7 L227.0,235.5 L227.2,236.4 L226.4,236.1 L226.7,235.8 L226.6,235.0 L225.6,234.7 L224.7,235.0 L224.5,234.5 L224.2,234.2 L222.9,234.1 L222.5,233.7 L222.1,234.0 L222.4,234.8 L221.6,235.3 L221.3,235.9 L220.7,235.8 L220.2,235.0 L220.4,234.1 L219.6,233.9 L219.8,233.5 L218.7,233.3 L218.6,233.0 L218.1,233.1 L217.6,232.1 L217.3,231.9 L216.7,231.9 L216.2,232.6 L215.6,232.2 L214.9,231.2 L214.5,231.6 L213.4,231.2 L212.1,231.1 L211.6,231.3 L211.1,231.1 L211.3,230.6 L211.8,230.2 L211.6,229.5 L211.2,229.1 L211.6,228.3 L210.8,227.0 L210.3,226.9 L209.5,227.6 L208.8,227.8 L207.9,227.7 L207.7,227.8 L205.2,227.8 L204.8,227.4 L204.9,227.0 L204.0,225.7 L203.8,225.0 L203.1,224.8 L202.6,225.2 L201.8,225.6 L201.5,226.5 L202.0,226.9 L201.6,227.7 L201.2,227.8 L200.2,227.3 L198.9,227.2 L197.8,227.3 L196.3,226.9 L195.9,226.6 L195.8,226.1 L196.3,225.8 L196.2,224.9 L195.8,224.5 L194.9,224.2 L193.9,224.1 L192.7,224.4 L192.3,224.3 L189.3,224.1 L188.1,223.7 L187.3,223.2 L187.1,222.7 L187.5,222.0 L186.8,221.4 L185.9,221.3 L185.0,221.4 L184.2,221.8 L183.0,222.4 L181.9,223.3 L180.8,224.6 L179.4,225.3 L179.4,225.7 L178.8,226.0 L178.2,226.0 L177.0,227.1 L176.1,228.1 L175.2,229.4 L174.3,229.3 L173.6,228.9 L172.8,229.1 L171.9,229.5 L170.3,230.7 L169.9,231.1 L168.6,232.5 L167.9,233.5 L167.0,235.2 L166.6,236.1 L166.0,238.4 L166.0,239.2 L166.4,239.6 L166.0,241.8 L165.9,242.9 L165.9,244.9 L165.9,246.4 L165.9,247.9 L166.0,248.8 L166.1,250.1 L166.3,250.4 L166.9,250.8 L167.2,250.8 L167.9,251.1 L167.6,251.4 L167.8,252.0 L168.2,252.1 L168.3,252.7 L168.6,253.3 L167.5,253.3 L166.8,253.6 L166.1,252.8 L166.0,252.3 L165.4,252.5 L164.9,252.3 L164.6,252.5 L164.1,252.0 L163.7,252.7 L162.5,252.5 L162.0,252.7 L161.5,253.3 L161.2,253.8 L160.7,254.0 L160.3,253.6 L159.6,253.8 L158.8,254.2 L158.4,254.7 L158.7,256.0 L157.5,255.9 L156.9,255.6 L156.4,255.7 L156.1,256.3 L155.3,256.0 L155.0,256.1 L154.7,255.5 L154.0,255.0 L154.1,254.7 L152.4,254.2 L151.5,253.5 L151.3,253.7 L150.6,253.3 L150.4,253.5 L149.5,253.9 L148.6,253.7 L148.1,254.0 L147.8,254.9 L147.3,255.1 L147.2,255.4 L146.0,255.6 L145.2,255.4 L144.7,254.6 L144.7,253.7 L144.4,253.5 L144.3,252.8 L143.9,253.0 L143.3,253.0 L143.2,252.7 L142.6,252.4 L142.4,252.2 L141.7,251.8 L140.9,251.9 L140.2,251.7 L140.1,251.0 L140.3,250.1 L140.7,249.7 L141.3,249.4 L141.1,249.2 L140.1,248.9 L140.4,248.3 L139.3,247.9 L138.9,248.1 L138.4,247.8 L137.8,247.9 L137.4,247.7 L136.9,247.1 L136.7,247.1 L135.7,247.4 L135.3,247.2 L135.1,247.8 L135.3,248.2 L134.8,248.6 L134.5,248.5 L134.1,247.9 L134.0,247.1 L133.5,246.6 L133.5,246.2 L132.8,245.8 L132.9,245.3 L132.3,245.1 L131.3,245.4 L130.8,245.3 L130.4,245.0 L130.1,245.2 L129.1,245.5 L128.5,245.0 L128.4,244.2 L128.0,243.7 L127.3,243.4 L125.5,243.3 L125.1,242.8 L124.4,243.2 L123.1,242.2 L122.0,241.8 L121.7,241.9 L120.7,241.5 L120.2,241.2 L119.2,241.8 L119.4,242.2 L119.4,242.8 L118.9,243.4 L119.0,244.0 L119.6,245.5 L119.4,246.1 L118.2,245.8 L117.8,245.9 L116.6,245.7 L116.4,246.0 L115.6,245.8 L114.8,246.1 L114.1,245.9 L114.0,245.4 L113.3,245.1 L112.6,245.6 L112.5,246.3 L112.0,246.5 L111.5,245.9 L111.3,245.3 L110.7,245.3 L110.3,245.0 L109.7,244.7 L109.4,245.1 L108.9,245.1 L108.4,245.5 L108.0,245.3 L107.1,245.9 L106.7,245.7 L106.0,246.2 L105.1,246.0 L104.9,245.3 L104.2,245.2 L103.1,243.0 L102.7,243.3 L101.6,242.7 L100.8,241.9 L100.1,241.5 L99.9,241.9 L99.4,241.9 L99.0,242.5 L98.5,242.9 L98.2,242.7 L97.5,243.0 L96.2,242.2 L95.9,242.6 L96.0,243.0 L95.6,243.1 L95.4,243.6 L95.0,243.4 L95.1,242.7 L94.6,242.8 L94.4,242.0 L93.5,241.4 L92.9,240.5 L92.5,240.7 L92.0,240.3 L91.8,239.7 L92.0,239.4 L91.5,238.2 L90.8,238.2 L90.3,238.6 L89.2,238.6 L88.6,238.3 L87.6,238.5 L86.6,237.8 L86.5,237.5 L85.0,237.2 L84.4,236.6 L84.0,236.9 L83.3,236.2 L83.0,236.3 L82.1,235.6 L81.7,236.0 L81.4,235.9 L81.0,235.5 L80.5,235.2 L80.7,234.5 L81.1,233.8 L80.3,234.0 L79.8,234.6 L79.9,234.9 L79.6,236.4 L77.9,235.9 L77.3,234.9 L77.3,234.6 L78.4,233.6 L78.4,232.9 L78.7,232.6 L78.7,232.1 L79.0,231.7 L79.1,230.0 L78.5,229.4 L78.0,229.6 L76.9,229.1 L76.7,228.8 L75.5,229.0 L75.6,229.3 L75.3,230.0 L74.6,230.0 L74.2,229.1 L74.4,228.6 L73.5,228.2 L73.0,228.3 L72.3,228.8 L71.7,227.4 L71.1,227.2 L71.1,226.5 L71.6,226.5 L74.0,225.5 L74.8,224.8 L75.5,223.4 L75.8,223.0 L76.3,222.1 L76.9,220.9 L77.6,219.5 L77.9,218.2 L78.0,216.9 L78.5,214.3 L79.2,211.1 L80.0,207.1 L80.4,204.9 L81.1,199.5 L81.6,195.3 L81.7,193.9 L81.5,193.0 L82.1,192.2 L82.6,190.8 L82.6,190.3 L82.8,189.7 L83.4,189.7 L83.8,190.1 L85.0,190.3 L85.3,190.1 L86.3,190.1 L86.1,189.3 L85.5,188.4 L84.5,187.4 L84.3,187.4 L83.3,186.5 L83.1,187.0 L83.2,187.3 L82.3,188.3 L81.9,189.2 L81.8,190.3 L81.5,190.6 L81.7,188.3 L82.2,184.2 L82.6,180.3 L82.9,177.0 L83.4,171.5 L83.5,169.8 L83.4,168.3 L83.6,167.4 L83.5,166.6 L83.9,165.4 L84.6,164.6 L84.8,164.0 L85.4,164.0 L85.8,164.7 L85.8,165.4 L86.5,166.0 L87.1,166.8 L87.9,167.4 L88.6,168.2 L89.8,169.2 L90.5,170.1 L91.2,171.8 L91.5,172.9 L91.7,174.6 L92.8,177.8 L93.4,178.6 L94.3,179.6 L94.6,178.8 L93.7,177.9 L93.4,177.0 L93.1,176.4 L93.1,175.2 L92.7,173.8 L92.4,171.9 L92.1,170.7 L91.8,169.5 L91.4,168.4 L90.5,166.9 L89.6,165.8 L87.9,164.4 L87.3,164.1 L86.7,163.5 L86.7,163.0 L86.4,162.6 L85.6,162.3 L85.0,161.8 L84.3,161.5 L83.5,160.8 L82.5,160.1 L81.9,159.9 L81.8,157.7 L82.5,157.3 L82.8,157.5 L84.0,157.0 L83.5,155.9 L83.6,155.4 L84.1,155.5 L84.6,155.1 L85.1,153.9 L85.1,153.3 L85.3,152.9 L84.7,151.7 L85.4,151.6 L85.6,151.1 L85.3,150.0 L84.9,149.9 L84.6,148.8 L84.3,148.5 L84.1,147.8 L83.2,147.5 L83.1,147.1 L82.5,147.3 L82.2,146.7 L82.7,145.9 L82.7,145.4 L83.2,145.1 L83.8,144.5 L83.8,144.2 L84.4,144.0 L84.1,142.6 L83.3,142.3 L82.6,142.4 L82.8,142.9 L82.5,143.2 L82.5,143.8 L81.1,142.6 L79.8,141.7 L79.4,141.5 L78.7,141.7 L78.2,141.5 L77.4,141.7 L77.0,140.6 L76.7,140.1 L76.1,139.8 L75.8,139.9 L74.6,139.6 L72.7,138.6 L71.8,137.9 L71.3,137.4 L70.6,137.3 L70.5,136.5 L69.8,134.1 L69.1,133.3 L68.1,131.7 L67.6,131.7 L67.3,130.9 L65.5,129.1 L64.2,128.1 L63.9,126.0 L64.6,126.0 L64.9,125.1 L65.8,124.3 L66.4,122.6 L67.3,122.0 L66.9,121.1 L66.3,120.8 L65.9,120.2 L64.7,119.7 L63.9,119.6 L63.5,119.4 L62.7,119.3 L62.5,119.1 L62.5,118.5 L63.7,118.1 L63.8,116.9 L63.4,116.2 L63.6,116.0 L63.6,115.2 L63.3,114.8 L62.1,115.6 L61.7,116.0 L61.0,116.1 L60.3,115.6 L59.7,114.9 L59.1,114.8 L58.3,115.4 L58.0,115.2 L56.9,114.7 L57.1,113.5 L56.7,112.6 L56.0,112.2 L56.5,111.9 L57.5,111.1 L58.1,110.7 L58.0,110.1 L57.5,110.2 L57.2,109.8 L57.3,109.3 L57.1,108.9 L58.3,108.7 L57.8,108.2 L56.8,107.8 L56.3,107.9 L56.1,108.2 L55.1,108.1 L55.1,107.7 L54.1,107.4 L54.2,107.7 L53.6,108.7 L52.9,108.4 L51.6,108.7 L51.3,109.0 L50.3,108.6 L50.3,108.2 L49.8,107.6 L49.0,107.3 L49.1,106.9 L49.6,106.8 L50.0,107.4 L50.9,107.2 L51.1,107.0 L52.0,107.5 L52.5,107.1 L52.9,106.4 L52.9,105.9 L52.1,105.4 L52.1,104.7 L51.3,105.2 L50.6,105.3 L50.2,105.2 L49.5,105.6 L49.4,106.2 L48.6,105.8 L48.3,106.3 L47.2,106.7 L46.8,106.2 L45.5,106.7 L44.9,106.6 L44.7,107.6 L45.0,108.7 L45.5,109.1 L44.8,109.3 L44.3,108.5 L44.3,107.8 L44.7,107.2 L44.6,106.3 L44.2,105.5 L43.5,105.1 L43.2,104.6 L43.2,103.9 L43.6,103.4 L44.0,103.4 L44.8,102.7 L44.8,102.2 L44.2,101.8 L43.9,101.9 L43.9,102.8 L43.0,103.8 L43.1,104.4 L42.0,103.5 L41.7,102.8 L40.6,102.6 L40.5,102.0 L39.7,102.8 L38.9,102.8 L38.4,103.0 L37.5,102.0 L37.1,101.2 L36.9,100.5 L37.2,99.9 L36.8,99.5 L36.7,99.0 L37.0,98.6 L36.7,99.0 L36.7,99.4 L37.0,99.9 L36.7,101.1 L36.2,100.9 L35.2,100.9 L34.2,100.6 L33.9,100.7 L32.9,99.8 L32.3,100.3 L31.6,100.4 L31.2,100.1 L30.6,100.1 L29.6,98.9 L28.9,97.6 L28.1,97.0 L27.9,97.7 L28.1,98.5 L26.9,98.7 L26.3,98.2 L25.2,98.2 L24.5,98.6 L24.2,97.8 L23.8,98.3 L24.2,98.9 L24.5,99.1 L24.1,100.0 L23.4,100.2 L22.4,100.3 L21.8,100.0 L20.6,100.1 L20.2,99.4 L20.8,99.1 L20.8,98.4 L20.5,97.3 L20.1,96.4 L19.4,95.3 L18.8,94.8 L17.7,94.1 L17.1,93.9 L16.6,94.3 L15.6,93.8 L15.2,93.4 L14.9,93.7 L13.9,93.5 L13.6,92.5 L14.4,92.5 L14.6,92.3 L15.5,92.3 L16.3,91.9 L16.8,92.1 L17.2,91.8 L18.1,91.8 L18.5,91.4 L19.2,91.4 L20.3,91.1 L21.6,91.7 L22.1,91.3 L22.1,90.7 L22.3,90.5 L22.3,89.9 L21.9,89.7 L21.9,89.2 L21.7,88.7 L21.2,88.4 L20.5,88.4 L20.3,88.1 L18.6,87.5 L17.8,87.7 L17.5,88.8 L16.8,89.5 L16.8,88.3 L16.6,87.6 L17.0,87.4 L16.8,86.9 L16.2,87.1 L15.8,86.8 L16.5,86.1 L16.3,85.1 L16.8,84.6 L17.0,85.0 L16.8,85.9 L17.2,86.2 L17.5,85.8 L17.8,86.3 L18.7,85.9 L19.4,85.9 L19.6,86.4 L20.1,86.4 L21.0,86.1 L21.6,85.8 L22.3,85.8 L22.5,86.3 L23.3,85.8 L22.2,85.3 L21.2,85.3 L21.5,84.7 L20.5,84.5 L20.3,85.0 L19.0,84.9 L19.0,84.3 L19.8,83.1 L19.3,82.9 L19.1,83.3 L18.7,83.3 L17.7,83.6 L17.1,84.1 L16.9,83.9 L15.7,84.6 L15.3,84.6 L14.4,84.1 L14.0,84.2 L13.8,84.8 L12.5,84.9 L12.6,83.9 L12.7,83.6 L12.5,83.2 L12.5,82.7 L12.1,82.5 L12.4,81.4 L12.8,80.8 L12.4,79.9 L12.8,79.4 L12.7,79.1 L13.3,78.4 L13.8,78.0 L14.3,78.1 L15.3,77.7 L15.7,77.8 L16.1,77.3 L16.6,77.2 L16.7,76.5 L17.5,76.1 L17.8,76.5 L19.2,76.1 L19.5,75.6 L19.9,75.5 L20.8,74.9 L21.5,75.1 L22.3,75.7 L23.3,75.8 L23.6,75.1 L24.0,74.7 L25.5,74.4 L26.5,74.6 L26.6,74.2 L27.0,73.9 L27.7,73.9 L28.0,73.5 L28.3,73.7 L28.2,74.2 L28.3,75.0 L28.7,75.6 L29.6,75.3 L29.8,75.9 L30.7,76.4 L30.5,75.7 L30.7,75.4 L30.5,74.7 L31.2,74.2 L31.8,74.2 L32.3,74.0 L32.9,74.1 L33.5,74.5 L34.4,74.4 L34.7,75.1 L34.4,75.4 L34.8,75.1 L35.9,75.1 L35.8,73.8 L36.4,73.5 L36.5,72.9 L35.8,72.2 L36.0,71.7 L36.8,71.3 L36.7,70.8 L37.0,70.6 L38.1,70.7 L38.9,71.5 L39.5,71.4 L39.8,71.0 L40.3,70.9 L41.0,70.3 L42.2,70.4 L42.5,69.8 L43.0,69.5 L43.3,70.4 L44.0,69.9 L44.9,69.6 L45.5,69.5 L45.7,70.6 L46.3,71.0 L47.0,70.8 L47.2,71.4 L46.4,71.8 L47.1,72.4 L48.3,72.5 L48.7,72.7 L48.4,73.7 L48.8,74.1 L49.5,74.3 L49.7,75.0 L50.1,75.0 L50.7,75.7 L50.9,76.9 L50.9,77.3 L51.6,77.6 L51.8,78.0 L52.8,78.4 L52.8,79.1 L53.2,79.8 L53.7,79.7 L53.6,79.1 L54.6,79.2 L54.6,78.9 L55.1,78.5 L56.0,77.5 L57.2,76.9 L57.7,76.5 L57.8,75.7 L58.4,75.6 L58.9,75.9 L59.9,75.5 L60.8,75.0 L61.2,75.4 L60.8,76.2 L60.3,76.6 L60.8,76.8 L61.1,76.4 L61.8,75.9 L62.9,77.7 L63.5,77.8 L63.9,77.5 L63.7,77.0 L64.5,77.0 L64.2,76.2 L64.8,76.0 L65.5,76.0 L65.9,76.4 L66.4,76.5 L66.3,76.9 L66.7,77.5 L66.8,78.1 L67.5,79.0 L68.0,78.9 L67.7,78.6 L67.1,77.3 L66.8,76.9 L66.4,76.1 L66.4,75.7 L67.1,75.4 L67.5,74.7 L68.2,74.4 L68.8,74.5 L69.1,74.3 L69.9,74.4 L70.2,74.8 L69.7,75.2 L69.5,75.8 L70.0,76.7 L71.4,77.0 L73.6,76.8 L75.4,76.4 L75.9,76.2 L76.5,76.6 L77.2,76.6 L77.9,76.3 L78.9,75.7 L77.1,74.7 L76.6,74.5 L76.2,73.4 L75.6,73.3 L75.3,72.8 L75.4,71.3 L75.3,70.8 L74.7,70.3 L75.1,70.1 L75.3,69.5 L75.4,68.6 L75.8,68.3 L75.9,67.7 L75.6,67.4 L75.6,65.7 L74.9,65.1 L74.6,63.4 L74.7,62.6 L74.9,61.9 L74.7,60.1 L75.0,59.0 L74.5,59.1 L74.2,59.6 L73.7,58.8 L73.5,58.1 L72.6,56.4 L72.4,56.3 L71.6,55.3 L70.7,55.1 L70.4,54.2 L70.4,52.8 L70.0,52.2 L69.9,51.1 L69.3,50.9 L69.2,50.3 L69.7,49.9 L70.1,49.4 L70.0,48.0 L69.7,47.1 L69.0,46.7 L68.0,46.4 L68.2,45.9 L68.0,45.5 L68.1,45.0 L68.6,45.0 L69.3,45.5 L69.7,45.2 L70.1,45.4 L70.4,46.0 L71.4,46.2 L72.5,46.3 L73.1,46.5 L73.4,46.9 L74.2,46.8 L74.3,47.2 L76.4,46.9 L77.1,46.6 L77.3,45.8 L77.6,45.9 L78.3,45.6 L79.4,45.5 L80.7,45.9 L81.3,45.8 L81.3,46.3 L81.9,47.0 L82.1,48.3 L81.6,48.2 L81.4,48.8 L80.8,49.0 L80.5,49.9 L80.6,50.3 L81.6,52.0 L82.8,53.3 L83.3,54.0 L83.4,54.5 L83.1,54.9 L83.4,55.2 L84.2,55.5 L85.1,54.6 L86.0,54.6 L86.8,54.3 L87.8,54.4 L89.0,55.1 L90.0,55.5 L92.1,55.8 L93.5,55.8 L94.5,56.0 L95.4,55.8 L96.1,55.8 L97.4,56.1 L98.1,56.1 L99.1,56.5 L100.3,57.2 L101.8,57.6 L102.9,57.5 L104.4,57.2 L106.2,56.4 L107.7,55.3 L108.4,54.4 L108.8,54.2 L109.7,53.9 L110.6,53.5 L112.1,53.4 L112.9,53.1 L112.9,52.8 L111.6,52.7 L111.3,52.9 L110.5,52.8 L110.0,52.8 L108.6,52.5 L108.0,51.9 L107.9,51.4 L107.6,51.2 L107.7,50.4 L108.3,49.0 L108.9,48.0 L109.3,47.2 L109.5,46.1 L110.0,45.5 L111.2,45.0 L111.8,44.6 L112.5,44.5 L113.2,44.1 L113.4,43.8 L114.8,43.2 L116.5,42.1 L117.5,41.4 L118.8,41.0 L120.1,40.8 L120.3,40.8 L121.8,40.7 L122.6,40.3 L123.4,40.1 L124.5,39.8 L125.2,39.4 L126.3,39.5 L128.0,38.9 L129.9,37.9 L130.7,37.2 L132.4,35.8 L133.4,35.2 L134.8,34.0 L135.4,32.2 L135.9,31.3 L136.7,31.0 L137.6,31.8 L138.2,31.7 L139.1,32.1 L139.3,31.9 L138.9,31.0 L138.1,31.0 L137.5,30.1 L137.5,29.8 L136.7,29.7 L136.4,29.0 L136.7,27.1 L137.1,26.9 L137.9,26.8 L138.5,27.0 L138.2,26.5 L137.3,26.3 L136.8,25.7 L137.1,24.4 L137.2,22.3 L137.4,21.8 L138.0,21.8 L137.3,21.0 L137.2,20.8 L137.2,18.7 L136.9,17.1 L137.5,16.1 L137.8,15.3 L137.8,14.4 L137.2,12.7 L137.3,12.2 L138.5,12.0 L139.0,11.6 L139.5,10.9 L140.2,10.3 L141.2,9.8 L142.2,9.6 L143.0,9.2 L143.4,9.3 L143.9,9.0 L146.4,8.6 L146.9,8.3 L147.7,8.4 L148.2,7.9 L149.3,8.0 L149.3,7.5 L149.8,7.6 L150.6,7.3 L152.2,6.9 L153.3,7.1 L153.9,6.9 L156.3,6.0 L156.6,6.7 L156.8,8.1 L156.8,8.4 L157.5,8.9 L157.9,10.1 L157.1,10.8 L157.5,11.0 L157.5,12.5 L158.0,13.9 L159.6,13.9 L160.0,14.7 L160.9,15.6 L161.0,16.1 L161.5,16.6 L162.2,16.4 L162.6,17.0 L163.2,17.3 L163.6,17.0 L163.9,15.9 L164.6,15.7 L165.6,15.0 L166.4,14.8 L166.9,15.0 L167.3,14.4 L168.1,14.7 L169.1,16.1 L169.3,16.7 L170.0,16.7 L170.2,17.1 L170.3,17.7 L169.9,18.3 L170.2,19.3 L170.5,19.7 L170.7,20.6 L170.6,21.1 L170.8,22.0 L172.3,22.7 L172.6,23.1 L173.7,22.6 L174.5,21.9 L175.4,22.2 L174.9,22.9 L175.4,23.0 L176.3,22.8 L176.7,23.1 L177.1,22.9 L177.8,23.9 L178.2,24.2 L178.4,26.0 L178.1,26.5 L178.4,27.5 L179.1,28.4 L179.5,28.2 L179.6,27.3 L179.8,27.1 L181.9,27.1 L182.6,27.7 L183.0,27.7 L184.2,27.1 L184.7,27.1 L185.3,26.9 L185.5,27.3 L187.2,28.6 L187.2,29.3 L188.9,29.3 L189.2,29.8 L188.5,30.3 L187.9,31.3 L187.7,32.1 L187.8,32.5 L187.3,33.3 L188.7,33.2 L188.7,34.0 L189.3,34.8 L189.1,35.4 L188.2,35.8 L188.0,35.7 L187.5,36.5 L187.9,37.4 L187.6,37.7 L188.2,37.8 L188.7,38.0 L188.7,38.4 L189.4,38.3 L190.9,38.0 L191.7,38.5 L192.2,38.5 L193.6,38.9 L194.3,38.6 L194.8,38.6 L195.4,38.0 L196.1,37.7 L198.1,37.2 L198.5,35.6 L198.2,35.1 L198.6,34.4 L199.6,33.9 L199.8,33.2 L201.0,32.5 L201.1,32.7 L202.1,32.8 L202.4,33.3 L201.9,33.6 L201.9,34.3 L201.5,34.2 L201.1,35.7 L201.3,36.0 L200.8,36.7 L200.9,37.3 L200.3,38.0 L200.3,38.3 L201.5,38.6 L201.7,39.0 L202.3,39.7 L201.5,41.1 L201.8,41.7 L201.8,42.4 L201.6,43.0 L203.1,43.2 L203.6,42.8 L204.4,42.8 L204.6,43.3 L205.7,43.9 L206.2,43.8 L206.7,44.5 L206.9,45.3 L207.7,45.5 L207.7,45.9 L208.5,45.8 L209.2,46.1 L209.7,45.8 L211.0,47.0 L210.5,47.5 L210.6,48.2 L211.2,47.8 L212.2,48.1 L212.9,48.8 L213.1,50.0 L213.6,50.3 L213.2,50.9 L213.7,51.5 L215.1,51.0 L215.4,50.6 L216.1,50.8 L216.5,50.6 L217.0,50.1 L217.5,49.9 L218.2,50.3 L218.8,50.1 L219.7,49.6 L220.0,49.9 L220.9,50.2 L220.9,50.8 L221.5,51.4 L222.0,51.5 L222.9,51.4 L223.5,51.7 L223.7,52.8 L224.6,52.7 L225.2,52.4 L225.6,52.4 L226.5,52.2 L227.1,51.3 L229.1,51.1 L229.6,51.3 L229.9,52.0 L230.2,52.0 L231.2,52.6 L232.1,52.3 L232.3,52.1 L233.3,52.5 L235.0,53.7 L234.7,54.2 L235.1,54.6 L235.6,54.7 L235.2,55.8 L235.8,56.3 L235.7,56.5 L236.2,57.1 L236.6,57.3 L237.1,58.2 L237.5,58.8 L237.7,59.5 L238.2,59.4 L238.5,59.8 L238.1,60.3 L238.6,61.0 L239.5,60.9 L240.5,61.4 L241.0,60.6 L240.8,60.0 L240.5,59.7 L240.9,59.3 L241.5,59.7 L242.5,59.3 L242.9,59.9 L243.2,59.7 L243.7,60.1 L244.4,60.3 L244.3,60.8 L244.6,61.7 L244.8,62.5 L245.7,61.7 L246.8,62.2 L247.3,62.0 L247.8,62.2 L248.5,62.0 L249.3,62.4 L249.6,62.3 L250.2,61.6 L250.9,61.5 L250.9,60.8 L252.5,60.4 L252.7,60.9 L253.4,60.8 L253.4,61.6 L253.8,62.2 L254.1,62.9 L254.9,63.4 L255.5,63.3 L256.1,63.7 L256.2,64.2 L257.0,64.4 L257.6,64.2 L258.1,64.4 L258.8,64.3 L259.3,63.8 L260.8,64.7 L261.2,64.3 L261.7,64.5 L262.1,64.0 L262.6,64.5 L263.0,65.0 L263.3,64.9 L264.3,65.3 L265.2,66.0 L266.1,66.3 L267.7,66.4 L267.9,66.6 L267.2,67.0 L266.1,68.8 L265.8,69.4 L265.3,71.1 L264.5,71.7 L263.9,71.8 L263.8,72.3 L263.5,72.6 L262.8,72.7 L262.6,73.7 L261.2,75.3 L260.2,75.9 L260.0,76.6 L259.5,77.4 L259.4,77.7 L259.6,79.4 L259.3,79.9 L258.8,80.3 L258.7,81.2 L258.2,82.7 L258.1,83.6 L258.4,84.7 L258.1,85.2 L257.5,85.5 L256.8,87.9 L256.4,88.3 L256.1,89.1 L255.5,89.8 L255.5,90.5 L255.1,90.8 L255.1,91.3 L254.9,92.0 L255.0,93.4 L255.6,94.2 L255.9,95.1 L255.2,96.3 L255.2,97.1 L254.7,97.7 L254.8,98.5 L254.2,100.4 L254.2,100.9 L254.5,101.7 L254.4,102.2 L253.8,102.8 L254.0,103.9 L254.9,104.8 L255.4,105.9 L255.2,106.4 L253.7,107.3 L254.0,108.0 L253.7,108.1 L253.7,108.7 L253.3,109.1 L252.3,108.6 L252.0,109.0 L252.6,109.3 L252.0,110.1 L251.2,110.5 L250.4,110.3 L249.3,110.5 L248.6,110.8 L248.3,110.3 L247.8,110.4 L247.1,110.2 L247.4,108.8 L246.8,108.8 L246.3,108.5ZM144.7,252.3 L144.7,252.8 L145.2,253.0 L145.8,253.0 L145.3,252.2 L144.7,252.3ZM204.7,221.3 L204.7,222.1 L204.4,223.0 L204.5,223.8 L205.2,223.8 L205.5,224.0 L205.8,225.8 L206.6,225.7 L207.1,225.8 L207.6,225.5 L208.2,224.8 L208.9,224.3 L208.8,223.4 L208.4,223.2 L207.3,224.1 L206.5,222.2 L205.7,222.1 L205.4,222.3 L205.1,221.6 L204.7,221.3ZM61.0,131.2 L60.4,131.8 L59.8,131.6 L59.2,131.1 L59.1,130.7 L59.7,130.5 L60.7,130.9 L61.0,131.2ZM63.1,124.3 L62.6,123.9 L61.8,124.0 L61.0,123.2 L61.2,122.5 L61.5,122.0 L62.0,122.1 L62.7,122.6 L62.5,123.6 L63.9,124.3 L64.1,124.8 L64.0,125.4 L63.7,125.5 L63.5,124.9 L63.1,124.3ZM6.0,81.8 L6.0,80.8 L6.7,80.5 L7.2,81.0 L6.8,81.4 L6.0,81.8ZM39.0,105.1 L38.7,104.9 L38.2,105.1 L37.3,104.6 L37.6,104.2 L38.9,104.5 L39.0,105.1ZM43.5,112.4 L44.3,112.5 L44.6,113.4 L45.5,113.9 L46.2,114.0 L45.8,114.6 L45.4,114.8 L44.2,114.5 L44.0,114.2 L43.5,114.5 L43.0,114.4 L42.4,113.8 L42.6,113.6 L42.2,112.8 L42.2,112.2 L43.0,112.0 L43.5,112.4ZM77.2,145.5 L77.7,144.9 L78.3,144.9 L78.2,145.6 L78.7,145.6 L79.5,145.5 L80.3,146.1 L80.9,146.1 L81.2,146.9 L81.2,147.2 L80.6,147.4 L79.6,147.0 L78.9,146.4 L77.5,145.7 L76.7,145.9 L76.1,145.7 L75.6,144.7 L76.5,144.1 L77.0,144.2 L77.3,144.8 L76.5,145.1 L77.2,145.5ZM81.7,155.9 L81.4,154.9 L80.8,154.3 L79.7,153.6 L79.0,152.7 L78.8,152.1 L79.0,151.5 L78.5,150.1 L79.3,150.3 L79.3,150.5 L80.6,151.7 L81.7,151.7 L82.0,152.0 L81.8,152.7 L82.1,153.0 L82.0,153.5 L82.2,153.9 L82.9,154.7 L82.5,155.7 L82.8,156.3 L82.0,157.1 L81.8,156.6 L81.7,155.9ZM232.6,236.8 L233.0,236.4 L233.3,235.9 L233.7,236.0 L233.3,236.7 L232.6,236.8ZM231.9,237.4 L231.6,236.9 L232.3,236.8 L231.9,237.4ZM228.9,236.6 L229.0,237.2 L228.2,237.7 L227.3,237.2 L227.6,237.0 L228.0,237.2 L228.9,236.6ZM290.9,269.8 L291.0,270.9 L290.7,271.5 L291.0,272.5 L290.9,274.6 L290.3,275.0 L290.6,275.5 L290.3,276.2 L290.0,276.1 L289.6,276.6 L288.7,277.0 L288.8,277.7 L289.3,277.1 L289.7,277.4 L290.2,277.3 L289.7,278.4 L289.0,278.8 L288.6,279.5 L288.4,280.2 L288.6,280.6 L288.0,281.4 L287.4,281.7 L287.5,282.5 L287.9,282.7 L287.3,283.9 L286.5,283.9 L286.3,283.4 L285.9,283.4 L285.4,283.0 L284.8,283.0 L285.1,282.2 L284.9,281.7 L284.5,281.7 L283.8,281.0 L283.5,281.1 L282.9,280.5 L282.2,280.3 L281.5,280.3 L281.3,279.9 L280.7,279.9 L280.6,279.4 L280.1,279.1 L279.9,278.8 L279.5,278.8 L279.1,278.0 L278.6,277.5 L278.9,277.1 L279.0,276.4 L279.5,276.4 L280.1,275.9 L280.4,275.9 L280.7,275.3 L281.4,274.9 L281.3,274.7 L279.9,274.4 L279.3,274.0 L278.6,274.0 L278.8,273.4 L278.5,273.2 L277.5,273.7 L276.8,273.0 L277.4,272.6 L277.7,272.2 L277.3,271.5 L277.9,271.5 L278.5,271.2 L278.8,270.6 L278.9,269.6 L278.7,269.1 L279.1,268.9 L278.7,268.0 L277.9,268.1 L277.5,268.4 L276.5,268.5 L276.0,268.4 L275.4,268.6 L275.6,267.9 L275.1,267.1 L275.4,266.6 L276.1,266.7 L276.4,266.4 L276.3,265.5 L276.9,265.0 L277.2,265.0 L277.9,264.6 L277.9,264.0 L277.5,264.0 L277.3,263.1 L276.8,262.7 L276.3,262.8 L276.1,262.3 L275.6,262.3 L274.7,261.3 L275.0,261.1 L274.7,260.4 L274.8,259.9 L274.4,259.0 L275.5,258.5 L276.9,258.3 L276.9,257.8 L276.3,257.2 L275.9,257.2 L275.6,256.9 L275.7,256.1 L275.4,255.8 L275.0,255.7 L274.4,256.3 L274.2,255.9 L274.6,254.9 L275.3,254.8 L275.3,253.9 L275.6,253.8 L276.2,253.9 L276.6,252.2 L276.4,251.7 L276.4,251.1 L277.1,250.8 L277.3,250.8 L277.5,249.9 L278.2,249.5 L278.3,249.8 L278.8,249.8 L279.2,249.5 L279.3,248.7 L280.6,248.3 L280.7,247.8 L281.1,247.9 L281.4,247.6 L281.9,247.7 L283.2,247.5 L284.2,246.8 L284.1,246.4 L284.7,245.4 L285.5,244.9 L286.3,244.7 L286.9,245.1 L287.3,244.8 L288.8,246.5 L289.3,245.8 L289.3,245.3 L289.8,244.7 L289.6,243.9 L289.7,242.9 L289.1,242.1 L289.5,240.9 L289.3,240.1 L289.8,239.7 L290.1,238.8 L289.7,237.4 L290.1,237.0 L291.1,237.0 L292.1,237.6 L291.9,238.2 L292.2,238.9 L292.2,239.9 L292.5,241.1 L292.7,243.1 L292.3,243.8 L291.8,246.5 L292.3,247.9 L293.1,249.1 L293.4,249.6 L293.5,250.8 L293.4,251.8 L293.6,252.8 L293.7,253.5 L293.5,254.8 L293.6,256.0 L294.0,257.8 L293.9,259.1 L294.0,260.2 L293.9,261.7 L293.8,262.8 L293.4,263.3 L292.2,265.4 L291.7,266.1 L291.1,267.1 L291.2,267.9 L290.8,269.4 L290.9,269.8Z" fill="#eef3fb" stroke="#9bb4d4" stroke-width="1.4" stroke-linejoin="round" fill-rule="evenodd"/>
  <circle cx="227.6" cy="74.6" r="6" fill="#e02424"/>
  <circle cx="227.6" cy="74.6" r="6" fill="none" stroke="#fff" stroke-width="1.6"/>
  <text x="236.6" y="78.6" text-anchor="start" font-family="Lato,Arial,sans-serif" font-size="13" font-weight="600" fill="#333">Nancy</text>
</svg>
